<svg width="54" height="52" viewBox="0 0 54 52" fill="none" xmlns="http://www.w3.org/2000/svg">
<rect width="54" height="52" rx="16" fill="white"/>
<path d="M24.0833 28.0417C24.0833 29.1733 24.9583 30.0833 26.0317 30.0833H28.225C29.1583 30.0833 29.9166 29.29 29.9166 28.2983C29.9166 27.2367 29.45 26.8517 28.7617 26.6067L25.25 25.3817C24.5616 25.1367 24.095 24.7633 24.095 23.69C24.095 22.71 24.8533 21.905 25.7866 21.905H27.98C29.0533 21.905 29.9283 22.815 29.9283 23.9467" stroke="#03464A" stroke-width="1.3125" stroke-linecap="round" stroke-linejoin="round"/>
<path d="M27 20.75V31.25" stroke="#03464A" stroke-width="1.3125" stroke-linecap="round" stroke-linejoin="round"/>
<path d="M38.6666 26C38.6666 32.44 33.44 37.6666 27 37.6666C20.56 37.6666 15.3333 32.44 15.3333 26C15.3333 19.56 20.56 14.3333 27 14.3333" stroke="#03464A" stroke-width="1.3125" stroke-linecap="round" stroke-linejoin="round"/>
<path d="M32.8333 15.5V20.1667H37.5" stroke="#03464A" stroke-width="1.3125" stroke-linecap="round" stroke-linejoin="round"/>
<path d="M38.6666 14.3333L32.8333 20.1666" stroke="#03464A" stroke-width="1.3125" stroke-linecap="round" stroke-linejoin="round"/>
</svg>
