<svg width="54" height="52" viewBox="0 0 54 52" fill="none" xmlns="http://www.w3.org/2000/svg">
<rect width="54" height="52" rx="16" fill="white"/>
<path d="M35.1317 37.6666H18.7983C15.2983 37.6666 15.2983 36.0916 15.2983 34.1666V33C15.2983 32.3583 15.8233 31.8333 16.465 31.8333H37.465C38.1067 31.8333 38.6317 32.3583 38.6317 33V34.1666C38.6317 36.0916 38.6317 37.6666 35.1317 37.6666Z" stroke="#370D66" stroke-width="1.3125" stroke-linecap="round" stroke-linejoin="round"/>
<path d="M37.1733 27.1666V31.8333H16.815V27.1666C16.815 22.6866 19.9767 18.9416 24.1883 18.0433C24.8183 17.9033 25.4717 17.8333 26.1483 17.8333H27.84C28.5167 17.8333 29.1817 17.9033 29.8117 18.0433C34.0233 18.9533 37.1733 22.6866 37.1733 27.1666Z" stroke="#370D66" stroke-width="1.3125" stroke-linecap="round" stroke-linejoin="round"/>
<path d="M29.9167 17.25C29.9167 17.53 29.8817 17.7866 29.8117 18.0433C29.1817 17.9033 28.5167 17.8333 27.84 17.8333H26.1483C25.4717 17.8333 24.8183 17.9033 24.1883 18.0433C24.1183 17.7866 24.0833 17.53 24.0833 17.25C24.0833 15.64 25.39 14.3333 27 14.3333C28.61 14.3333 29.9167 15.64 29.9167 17.25Z" stroke="#292D32" stroke-width="1.3125" stroke-linecap="round" stroke-linejoin="round"/>
<path d="M30.5 24.8333H23.5" stroke="#292D32" stroke-width="1.3125" stroke-linecap="round" stroke-linejoin="round"/>
</svg>
