<svg width="54" height="52" viewBox="0 0 54 52" fill="none" xmlns="http://www.w3.org/2000/svg">
<rect width="54" height="52" rx="16" fill="white"/>
<path d="M31.095 15.3017H22.905C20 15.3017 19.3583 16.7483 18.985 18.5217L17.6667 24.8333H36.3333L35.015 18.5217C34.6417 16.7483 34 15.3017 31.095 15.3017Z" stroke="#CB1F52" stroke-width="1.3125" stroke-linecap="round" stroke-linejoin="round"/>
<path d="M38.655 35.1233C38.7833 36.4883 37.6867 37.6666 36.2867 37.6666H34.0933C32.8333 37.6666 32.6583 37.13 32.4367 36.465L32.2033 35.765C31.8767 34.8083 31.6667 34.1666 29.9867 34.1666H24.0133C22.3333 34.1666 22.0883 34.89 21.7967 35.765L21.5633 36.465C21.3417 37.13 21.1667 37.6666 19.9067 37.6666H17.7133C16.3133 37.6666 15.2167 36.4883 15.345 35.1233L15.9983 28.0183C16.1617 26.2683 16.5 24.8333 19.5567 24.8333H34.4433C37.5 24.8333 37.8383 26.2683 38.0017 28.0183L38.655 35.1233Z" stroke="#CB1F52" stroke-width="1.3125" stroke-linecap="round" stroke-linejoin="round"/>
<path d="M17.6667 21.3333H16.5" stroke="#CB1F52" stroke-width="1.3125" stroke-linecap="round" stroke-linejoin="round"/>
<path d="M37.5 21.3333H36.3333" stroke="#CB1F52" stroke-width="1.3125" stroke-linecap="round" stroke-linejoin="round"/>
<path d="M27 15.5V17.8333" stroke="#CB1F52" stroke-width="1.3125" stroke-linecap="round" stroke-linejoin="round"/>
<path d="M25.25 17.8333H28.75" stroke="#CB1F52" stroke-width="1.3125" stroke-linecap="round" stroke-linejoin="round"/>
<path d="M20 29.5H23.5" stroke="#CB1F52" stroke-width="1.3125" stroke-linecap="round" stroke-linejoin="round"/>
<path d="M30.5 29.5H34" stroke="#CB1F52" stroke-width="1.3125" stroke-linecap="round" stroke-linejoin="round"/>
</svg>
