<svg width="54" height="52" viewBox="0 0 54 52" fill="none" xmlns="http://www.w3.org/2000/svg">
<rect width="54" height="52" rx="16" fill="white"/>
<path d="M24.0834 28.0417C24.0834 29.1733 24.9584 30.0833 26.0317 30.0833H28.225C29.1584 30.0833 29.9167 29.29 29.9167 28.2983C29.9167 27.2367 29.4501 26.8517 28.7617 26.6067L25.25 25.3817C24.5617 25.1367 24.0951 24.7633 24.0951 23.69C24.0951 22.71 24.8534 21.905 25.7867 21.905H27.98C29.0534 21.905 29.9284 22.815 29.9284 23.9467" stroke="#370D66" stroke-width="1.3125" stroke-linecap="round" stroke-linejoin="round"/>
<path d="M27 20.75V31.25" stroke="#370D66" stroke-width="1.3125" stroke-linecap="round" stroke-linejoin="round"/>
<path d="M38.6667 26C38.6667 32.44 33.44 37.6666 27 37.6666C20.56 37.6666 15.3334 32.44 15.3334 26C15.3334 19.56 20.56 14.3333 27 14.3333" stroke="#370D66" stroke-width="1.3125" stroke-linecap="round" stroke-linejoin="round"/>
<path d="M38.6667 19V14.3333H34" stroke="#370D66" stroke-width="1.3125" stroke-linecap="round" stroke-linejoin="round"/>
<path d="M32.8334 20.1666L38.6667 14.3333" stroke="#370D66" stroke-width="1.3125" stroke-linecap="round" stroke-linejoin="round"/>
</svg>
