<svg width="24" height="25" viewBox="0 0 24 25" fill="none" xmlns="http://www.w3.org/2000/svg">
<path d="M6.53341 10.5524C6.02351 10.5524 5.5345 10.7549 5.17395 11.1155C4.8134 11.476 4.61084 11.9651 4.61084 12.475C4.61084 12.9848 4.8134 13.4739 5.17395 13.8344C5.5345 14.195 6.02351 14.3975 6.53341 14.3975C7.04331 14.3975 7.53232 14.195 7.89287 13.8344C8.25342 13.4739 8.45598 12.9848 8.45598 12.475C8.45598 11.9651 8.25342 11.476 7.89287 11.1155C7.53232 10.7549 7.04331 10.5524 6.53341 10.5524ZM12.3011 10.5524C11.7912 10.5524 11.3022 10.7549 10.9417 11.1155C10.5811 11.476 10.3785 11.9651 10.3785 12.475C10.3785 12.9848 10.5811 13.4739 10.9417 13.8344C11.3022 14.195 11.7912 14.3975 12.3011 14.3975C12.811 14.3975 13.3 14.195 13.6606 13.8344C14.0211 13.4739 14.2237 12.9848 14.2237 12.475C14.2237 11.9651 14.0211 11.476 13.6606 11.1155C13.3 10.7549 12.811 10.5524 12.3011 10.5524ZM18.0688 10.5524C17.5589 10.5524 17.0699 10.7549 16.7094 11.1155C16.3488 11.476 16.1463 11.9651 16.1463 12.475C16.1463 12.9848 16.3488 13.4739 16.7094 13.8344C17.0699 14.195 17.5589 14.3975 18.0688 14.3975C18.5787 14.3975 19.0677 14.195 19.4283 13.8344C19.7888 13.4739 19.9914 12.9848 19.9914 12.475C19.9914 11.9651 19.7888 11.476 19.4283 11.1155C19.0677 10.7549 18.5787 10.5524 18.0688 10.5524Z" fill="black"/>
</svg>
