<svg width="20" height="20" viewBox="0 0 20 20" fill="none" xmlns="http://www.w3.org/2000/svg">
<path d="M7.52503 18.075L9.4667 16.4417C9.75837 16.1917 10.2417 16.1917 10.5334 16.4417L12.475 18.075C12.925 18.3 13.475 18.075 13.6417 17.5917L14.0084 16.4833C14.1 16.2167 14.0084 15.825 13.8084 15.625L11.9167 13.725C11.775 13.5917 11.6667 13.325 11.6667 13.1333V10.7583C11.6667 10.4083 11.925 10.2417 12.25 10.375L16.3417 12.1417C16.9834 12.4167 17.5084 12.075 17.5084 11.375V10.3C17.5084 9.74165 17.0917 9.09999 16.575 8.88332L11.9167 6.87499C11.7834 6.81665 11.6667 6.64165 11.6667 6.49165V3.99165C11.6667 3.20832 11.0917 2.28332 10.3917 1.92499C10.1417 1.79999 9.85003 1.79999 9.60003 1.92499C8.90003 2.28332 8.32503 3.21665 8.32503 3.99999V6.49999C8.32503 6.64999 8.20837 6.82499 8.07503 6.88332L3.42503 8.89165C2.90837 9.09999 2.4917 9.74165 2.4917 10.3V11.375C2.4917 12.075 3.0167 12.4167 3.65837 12.1417L7.75003 10.375C8.0667 10.2333 8.33337 10.4083 8.33337 10.7583V13.1333C8.33337 13.325 8.22503 13.5917 8.0917 13.725L6.20003 15.625C6.00003 15.825 5.90837 16.2083 6.00003 16.4833L6.3667 17.5917C6.5167 18.075 7.0667 18.3083 7.52503 18.075Z" stroke="white" stroke-width="0.9375" stroke-linecap="round" stroke-linejoin="round"/>
</svg>
