<svg width="20" height="20" viewBox="0 0 20 20" fill="none" xmlns="http://www.w3.org/2000/svg">
<path d="M9.975 18.3334C14.5774 18.3334 18.3083 14.6025 18.3083 10.0001C18.3083 5.39771 14.5774 1.66675 9.975 1.66675C5.37262 1.66675 1.64166 5.39771 1.64166 10.0001C1.64166 14.6025 5.37262 18.3334 9.975 18.3334Z" stroke="white" stroke-width="0.9375" stroke-linecap="round" stroke-linejoin="round"/>
<path d="M8.93332 12.1085V7.89183C8.93332 7.49183 8.76666 7.3335 8.34166 7.3335H7.25832C6.83332 7.3335 6.66666 7.49183 6.66666 7.89183V12.1085C6.66666 12.5085 6.83332 12.6668 7.25832 12.6668H8.33332C8.76666 12.6668 8.93332 12.5085 8.93332 12.1085Z" stroke="white" stroke-width="0.9375" stroke-linecap="round" stroke-linejoin="round"/>
<path d="M13.3333 12.1085V7.89183C13.3333 7.49183 13.1667 7.3335 12.7417 7.3335H11.6667C11.2417 7.3335 11.075 7.49183 11.075 7.89183V12.1085C11.075 12.5085 11.2417 12.6668 11.6667 12.6668H12.7417C13.1667 12.6668 13.3333 12.5085 13.3333 12.1085Z" stroke="white" stroke-width="0.9375" stroke-linecap="round" stroke-linejoin="round"/>
</svg>
