<svg width="20" height="20" viewBox="0 0 20 20" fill="none" xmlns="http://www.w3.org/2000/svg">
<path d="M9.97506 18.3334C14.5774 18.3334 18.3084 14.6025 18.3084 10.0001C18.3084 5.39771 14.5774 1.66675 9.97506 1.66675C5.37268 1.66675 1.64172 5.39771 1.64172 10.0001C1.64172 14.6025 5.37268 18.3334 9.97506 18.3334Z" stroke="#1E1E1E" stroke-width="0.9375" stroke-linecap="round" stroke-linejoin="round"/>
<path d="M8.93329 12.1085V7.89183C8.93329 7.49183 8.76663 7.3335 8.34163 7.3335H7.25829C6.83329 7.3335 6.66663 7.49183 6.66663 7.89183V12.1085C6.66663 12.5085 6.83329 12.6668 7.25829 12.6668H8.33329C8.76663 12.6668 8.93329 12.5085 8.93329 12.1085Z" stroke="#1E1E1E" stroke-width="0.9375" stroke-linecap="round" stroke-linejoin="round"/>
<path d="M13.3333 12.1085V7.89183C13.3333 7.49183 13.1666 7.3335 12.7416 7.3335H11.6666C11.2416 7.3335 11.075 7.49183 11.075 7.89183V12.1085C11.075 12.5085 11.2416 12.6668 11.6666 12.6668H12.7416C13.1666 12.6668 13.3333 12.5085 13.3333 12.1085Z" stroke="#1E1E1E" stroke-width="0.9375" stroke-linecap="round" stroke-linejoin="round"/>
</svg>
