<svg width="11" height="11" viewBox="0 0 11 11" fill="none" xmlns="http://www.w3.org/2000/svg">
<path fill-rule="evenodd" clip-rule="evenodd" d="M8.543 1.57914V9.16876C8.543 9.42421 8.33592 9.63128 8.08048 9.63128C7.82504 9.63128 7.61796 9.42421 7.61796 9.16876V1.57914L6.23097 2.96613C6.05035 3.14676 5.7575 3.14676 5.57687 2.96613C5.39625 2.78551 5.39625 2.49265 5.57687 2.31203L7.75343 0.135469C7.93406 -0.0451565 8.22691 -0.0451565 8.40753 0.135469L10.5841 2.31203C10.7647 2.49265 10.7647 2.78551 10.5841 2.96613C10.4035 3.14676 10.1106 3.14676 9.92999 2.96613L8.543 1.57914ZM3.1016 1.5508C3.1016 1.29536 2.89452 1.08828 2.63908 1.08828C2.38364 1.08828 2.17656 1.29536 2.17656 1.5508V9.14042L0.78957 7.75343C0.608945 7.57281 0.316094 7.57281 0.135469 7.75343C-0.0451562 7.93406 -0.0451562 8.22691 0.135469 8.40753L2.31203 10.5841C2.49265 10.7647 2.78551 10.7647 2.96613 10.5841L5.14269 8.40753C5.32332 8.22691 5.32332 7.93406 5.14269 7.75343C4.96207 7.57281 4.66922 7.57281 4.48859 7.75343L3.1016 9.14042V1.5508Z" fill="#7C8DB5"/>
</svg>
