<svg width="25" height="22" viewBox="0 0 25 22" fill="none" xmlns="http://www.w3.org/2000/svg">
<path d="M7.32551 5.06805C3.85774 5.06805 1.04653 7.87926 1.04653 11.3471V15.0996L0.306542 15.8396C0.00724221 16.1389 -0.082286 16.589 0.0796915 16.9801C0.241669 17.3711 0.623265 17.6261 1.04653 17.6261H13.6045C14.0278 17.6261 14.4094 17.3711 14.5714 16.9801C14.7334 16.589 14.6438 16.1389 14.3445 15.8396L13.6045 15.0996V11.3471C13.6045 7.87926 10.7933 5.06805 7.32551 5.06805Z" fill="#370D66"/>
<path d="M7.3252 21.8121C5.59131 21.8121 4.1857 20.4066 4.1857 18.6726H10.4647C10.4647 20.4066 9.05915 21.8121 7.3252 21.8121Z" fill="#370D66"/>
<g clip-path="url(#clip0_9520_9626)">
<circle cx="17.3601" cy="8.61444" r="7.3255" fill="#F5222D"/>
<path d="M19.7764 11.5774H18.7195V13.2889H17.4908V11.5774H13.9067V10.6063L17.4908 5.42333H18.7195V10.5311H19.7764V11.5774ZM17.4908 10.5311V8.56206C17.4908 7.86099 17.5087 7.28689 17.5444 6.83978H17.5015C17.4014 7.07586 17.244 7.36201 17.0294 7.69824L15.0817 10.5311H17.4908Z" fill="white"/>
</g>
<defs>
<clipPath id="clip0_9520_9626">
<rect width="14.651" height="15.8719" fill="white" transform="translate(10.0349 0.0680542)"/>
</clipPath>
</defs>
</svg>
